<svg width="1458" height="303" viewBox="0 0 1458 303" fill="none" xmlns="http://www.w3.org/2000/svg">
<g clip-path="url(#clip0_505_822)">
<path d="M0.791145 255.165C6.99827 252.702 13.2102 250.325 19.3156 247.547C25.3221 244.794 31.0522 241.327 36.4107 237.203C46.61 229.323 55.6324 219.406 66.7596 213.075C72.3065 209.753 78.4317 207.848 84.7085 207.495C84.8114 207.503 84.9096 207.548 84.9895 207.622C85.0694 207.697 85.1271 207.798 85.1544 207.911C85.1818 208.024 85.1774 208.143 85.142 208.253C85.1066 208.363 85.0419 208.457 84.957 208.523L68.7332 217.332C63.3261 220.282 58.0343 223.382 52.5633 226.285C51.7953 226.787 51.0506 225.365 51.8677 224.921C57.2662 221.953 62.7555 219.241 68.2093 216.304L84.476 207.58C84.622 207.866 84.6351 208.239 84.7158 208.591C72.7327 208.879 62.3293 216.667 53.4109 225.012C48.4937 229.619 43.7239 234.398 38.5329 238.623C33.3614 242.76 27.7897 246.214 21.9248 248.918C15.1543 252.009 8.22805 254.647 1.18149 256.818C0.287096 257.111 -0.0517174 255.559 0.816909 255.215L0.791145 255.165Z" fill="black" fill-opacity="0.1"/>
<path d="M1.98968 254.696C12.163 253.099 20.7685 245.183 31.3559 245.942C36.4779 246.539 41.5181 247.861 46.3592 249.877C51.4423 251.775 56.4261 254.006 61.2855 256.558C66.7418 259.487 72.0492 262.765 77.1819 266.377C77.3019 266.459 77.3956 266.583 77.449 266.73C77.5023 266.877 77.5125 267.04 77.4781 267.194C77.4436 267.347 77.3663 267.484 77.2577 267.583C77.1491 267.683 77.015 267.739 76.8753 267.745C71.4373 267.662 65.8517 267.675 60.9707 264.668C56.0897 261.661 52.5642 256.33 47.6956 253.27C47.5641 253.186 47.4669 253.047 47.4255 252.882C47.3841 252.718 47.4018 252.542 47.4747 252.393C47.5476 252.244 47.6697 252.134 47.8143 252.088C47.9588 252.042 48.1139 252.064 48.2454 252.147C52.9162 255.09 56.6432 259.502 61.2278 262.546C65.8124 265.59 71.5227 266.169 76.9335 266.314C76.8285 266.765 76.7087 267.225 76.6122 267.692C72.1427 264.632 67.5101 261.892 62.7417 259.491C57.9039 256.966 52.9446 254.757 47.8879 252.875C43.0702 250.907 38.1038 249.455 33.0535 248.537C28.0454 247.908 22.9847 248.638 18.2877 250.667C13.0145 252.722 7.82401 255.441 2.19 255.823C1.64147 255.867 1.50744 254.832 2.05356 254.744L1.98968 254.696Z" fill="black" fill-opacity="0.1"/>
<path d="M25.5295 245.753C30.0072 247.157 34.5713 248.168 39.1812 248.776C43.4597 249.216 47.7684 248.843 51.9303 247.673C59.6546 245.52 66.8339 241.411 74.5386 239.181C78.7263 237.866 83.1067 237.506 87.4278 238.121L87.0793 239.562C75.9315 236.177 64.1053 237.521 53.817 243.34C50.8952 244.984 48.1568 247.015 45.6589 249.392C45.5779 249.489 45.4793 249.565 45.3698 249.615C45.2603 249.665 45.1424 249.687 45.0244 249.68C44.9063 249.673 44.7908 249.637 44.6858 249.575C44.5807 249.513 44.4886 249.425 44.4158 249.319C44.3429 249.213 44.2911 249.09 44.2637 248.959C44.2364 248.828 44.2342 248.693 44.2574 248.561C44.2805 248.43 44.3285 248.305 44.3979 248.197C44.4673 248.089 44.5566 247.999 44.6596 247.934C54.0363 239.75 65.6819 235.622 77.5305 236.283C80.8646 236.488 84.173 237.087 87.4021 238.071C88.2429 238.33 87.8724 239.65 87.0536 239.511C78.9694 238.216 71.16 241.592 63.7456 244.777C56.3313 247.962 48.4927 251.087 40.253 250.298C35.1731 249.636 30.1524 248.462 25.2504 246.789C24.6283 246.612 24.8817 245.526 25.5038 245.703L25.5295 245.753Z" fill="black" fill-opacity="0.1"/>
<path d="M1.21688 255.111C4.76192 254.061 8.47513 253.937 12.0786 254.748C15.8462 255.467 19.5547 256.552 23.1635 257.989C31.3168 261.08 39.6068 264.014 47.4923 267.932C51.6654 269.851 55.5865 272.42 59.1425 275.564C59.5454 275.929 58.9839 276.566 58.5957 276.191C55.4375 273.407 51.9464 271.152 48.2295 269.494C44.5373 267.775 40.6687 266.599 36.8914 265.138L24.6032 260.349C21.1604 258.953 17.6486 257.792 14.0867 256.871C12.0333 256.351 9.94416 256.041 7.84432 255.944C5.75679 255.934 3.67333 256.124 1.61611 256.512C1.4629 256.537 1.30657 256.497 1.17684 256.4C1.04712 256.303 0.953017 256.155 0.912407 255.985C0.871797 255.815 0.887512 255.634 0.956556 255.477C1.0256 255.32 1.14318 255.198 1.28695 255.133L1.21688 255.111Z" fill="black" fill-opacity="0.1"/>
</g>
<g clip-path="url(#clip1_505_822)">
<path d="M1328.99 245.259C1329.9 242.546 1331.33 240.095 1333.17 238.077C1335.01 236.059 1337.22 234.524 1339.65 233.58C1341.26 232.948 1342.79 231.986 1344.36 231.186C1342.92 230.429 1341.37 230.005 1339.8 229.939C1336.06 229.788 1332.53 227.984 1329.96 224.915C1329.45 224.055 1329.12 223.085 1328.97 222.068C1328.82 221.052 1328.86 220.011 1329.1 219.015C1329.56 217.078 1331.59 217.95 1332.87 218.558C1337.05 220.441 1341.63 221.796 1345.21 224.687C1349.91 228.541 1355.04 228.532 1360.22 229.27C1351.96 225.184 1345.03 218.275 1340.4 209.51C1339.36 207.456 1338.2 207.487 1336.55 208.3C1332.64 210.197 1328.22 210.265 1324.26 208.49C1320.3 206.715 1317.11 203.241 1315.39 198.821C1315.01 197.863 1314.84 196.18 1315.33 195.6C1315.75 195.291 1316.22 195.085 1316.71 194.994C1317.21 194.903 1317.71 194.929 1318.2 195.072C1320.88 195.633 1323.53 196.439 1326.19 197.159L1326.68 197.22L1326.24 196.921C1325.8 196.282 1325.32 195.682 1324.8 195.128C1321.31 191.611 1318.82 187.009 1317.62 181.898C1317.49 180.726 1317.54 179.536 1317.77 178.383C1318.63 178.504 1319.62 178.321 1320.32 178.726C1325.2 181.323 1329.5 185.157 1332.87 189.932C1332.16 186.54 1331.68 183.093 1331.43 179.62C1331.38 174.431 1329.91 169.383 1327.23 165.167C1325.79 162.231 1324.47 159.212 1323.3 156.124C1322.94 155.414 1321.85 154.472 1321.32 154.617C1311.04 157.47 1302.95 150.744 1294.23 146.738C1292.38 145.933 1292.43 143.884 1294.3 142.767C1295.84 141.798 1297.54 141.187 1299.29 140.971C1306.16 140.486 1313 142.255 1319 146.066C1317.79 141.907 1316.43 138.203 1315.63 134.361C1314.56 129.201 1314.21 123.954 1316.44 118.97C1317.48 116.659 1319.05 116.054 1320.35 117.685C1321.99 119.623 1323.37 121.828 1324.45 124.227C1325.85 127.674 1326.62 131.405 1326.73 135.197C1326.83 138.989 1326.26 142.765 1325.05 146.3C1324.48 147.914 1324.28 149.671 1324.49 151.397C1325.59 156.813 1327.66 161.913 1330.59 166.379C1331.45 160.761 1332.17 155.559 1333.12 150.466C1334.93 141.225 1337.96 132.347 1342.09 124.127C1342.62 123.241 1342.9 122.191 1342.89 121.119C1342.88 120.047 1342.57 119.005 1342.02 118.135C1340.53 115.525 1339.27 112.744 1337.82 110.108C1334.33 103.674 1330.51 97.7154 1322.96 97.332C1322.72 97.3036 1322.49 97.2324 1322.27 97.1209C1317.58 95.4013 1313.64 91.7506 1311.21 86.8925C1310.14 84.7785 1310.94 83.2251 1313.06 83.0282C1313.77 83.0531 1314.47 83.1735 1315.16 83.3869C1320.75 84.667 1326.06 86.6292 1330.07 90.9748C1330.3 87.5127 1330.72 84.0706 1331.33 80.6688C1331.64 79.2969 1333.36 78.3537 1334.45 77.2185C1335.47 78.1882 1336.33 79.3612 1336.98 80.6797C1338.67 86.7817 1338.86 92.8208 1335.65 98.5413C1335.44 99.0583 1335.33 99.6251 1335.35 100.196C1335.36 100.768 1335.49 101.328 1335.73 101.831C1338.46 106.911 1341.35 111.871 1344.24 116.822C1344.37 117.078 1345.58 116.974 1345.65 116.79C1347.15 111.98 1349.27 107.254 1349.85 102.304C1350.9 93.1206 1346.66 86.1127 1340.86 80.177C1332.57 71.6837 1317.06 66.4394 1306.29 75.3542C1305.06 76.298 1304.09 77.6267 1303.52 79.1792C1302.47 82.1731 1301.01 84.9539 1299.18 87.412C1295.8 91.3359 1292.24 95.0548 1288.51 98.553C1287.71 99.3562 1286.18 100.318 1285.53 99.9555C1285.01 99.5701 1284.56 99.0677 1284.21 98.4791C1283.86 97.8904 1283.62 97.2277 1283.5 96.5311C1283.2 94.3263 1283.33 92.0735 1283.88 89.9334C1284.43 87.7933 1285.4 85.8187 1286.7 84.1503C1289.37 80.2696 1293.21 78.4657 1297.02 76.5388L1297.2 76.4256L1297.02 76.5388L1292.75 76.6151C1289.95 76.7124 1287.16 76.06 1284.63 74.711C1282.09 73.362 1279.86 71.3543 1278.14 68.8508C1275.56 65.1974 1276.59 62.7547 1280.66 62.4739C1283.64 62.1908 1286.65 62.2507 1289.62 62.6525C1295.44 63.6203 1300.79 65.8224 1303.4 72.6123C1304.01 74.2267 1304.79 73.5576 1305.62 72.9942C1314.48 66.956 1323.62 67.1469 1332.93 71.5265C1334.61 72.3042 1336.27 73.1295 1337.93 73.9397C1337.65 73.4041 1337.32 72.9119 1336.93 72.476C1330.49 66.6231 1324.18 60.3394 1315.68 58.3257C1309.18 56.7943 1304.97 51.6346 1301.31 45.9148C1300.62 44.8519 1301.01 42.9047 1300.9 41.366C1302.03 41.2543 1303.16 41.304 1304.28 41.514C1310.99 43.6808 1317.2 47.4792 1322.49 52.6442C1322.37 50.9888 1322.22 49.5151 1322.16 48.028C1321.83 43.6784 1322.96 39.3506 1325.31 35.9004C1327.58 32.6245 1330.28 32.7948 1331.2 36.4572C1332.35 40.958 1333.07 45.5857 1333.34 50.2597C1333.48 52.0972 1333.22 53.9444 1332.57 55.6356C1331.92 57.3268 1330.92 58.8089 1329.64 59.949C1327.76 61.5587 1328.28 62.0624 1329.85 63.074C1331.32 63.9603 1332.69 65.0338 1333.95 66.2735C1336.84 69.2171 1339.57 72.3499 1342.14 75.6558C1344.04 78.4835 1345.77 81.4413 1347.35 84.5122C1347.76 82.406 1347.96 80.2519 1347.93 78.0937C1348.51 69.9026 1351.66 66.958 1356.45 65.1523C1359.11 64.1619 1360 65.1483 1359.79 68.2232C1359.1 76.0624 1357.31 83.3745 1351.56 88.563C1350.7 89.347 1350.4 89.7655 1350.91 91.1058C1352.04 93.947 1352.65 97.0231 1352.7 100.142C1352.74 103.26 1352.21 106.354 1351.15 109.229C1348.85 115.559 1346.18 121.736 1343.49 127.906C1340.57 134.122 1338.46 140.783 1337.22 147.684C1339.22 146.55 1341.07 145.118 1342.72 143.426C1347.11 138.728 1351.15 133.607 1355.75 129.191C1357.04 128.143 1358.01 126.669 1358.53 124.971C1359.05 123.272 1359.09 121.432 1358.65 119.704C1357.92 115.629 1357.52 111.486 1357.47 107.328C1357.51 105.026 1357.95 102.756 1358.76 100.648C1359.57 98.5399 1360.75 96.6362 1362.22 95.0468C1364.14 92.8251 1365.82 93.2742 1366.78 96.0913C1367.01 96.856 1367.18 97.6415 1367.28 98.439C1368.53 105.955 1367.83 113.717 1365.26 120.783L1368.89 119.414C1373.17 117.822 1377.49 116.916 1381.7 119.397C1382.3 119.709 1382.83 120.163 1383.26 120.728C1383.7 121.293 1384.02 121.956 1384.2 122.673C1384.07 123.426 1383.78 124.135 1383.37 124.749C1382.97 125.364 1382.44 125.869 1381.84 126.228C1379.04 128.008 1375.95 129.139 1372.76 129.555C1369.56 129.97 1366.32 129.663 1363.23 128.649C1362.3 128.254 1361.28 128.19 1360.31 128.464C1359.34 128.738 1358.47 129.338 1357.8 130.185C1353.63 134.924 1349.47 139.663 1345.19 144.291C1342.97 146.666 1340.87 149.266 1337.55 149.927C1337.09 150.143 1336.67 150.485 1336.35 150.923C1336.03 151.361 1335.81 151.882 1335.71 152.44C1335.04 159.927 1333.94 167.465 1334.15 174.939C1334.4 188.507 1338.45 201.639 1345.73 212.432C1348.28 216.258 1353.99 221.669 1357.06 222.759C1356.45 220.926 1355.74 218.936 1355.11 216.908C1354.37 213.828 1352.63 211.176 1350.24 209.482C1347.14 207.383 1344.73 204.185 1343.4 200.383C1342.15 196.93 1341.6 193.367 1343.16 189.85C1344.64 186.627 1346.69 186.333 1348.03 189.523C1349.65 193.404 1351.05 197.396 1352.23 201.477C1352.98 203.925 1353.35 206.524 1353.89 209.049L1354.66 208.927C1354.61 207.509 1354.62 206.095 1354.52 204.688C1354.02 197.124 1357.44 193.56 1362.47 190.295C1363.69 189.494 1365.11 189.289 1365.03 191.84C1364.96 199.474 1363.95 206.64 1357.9 211.52C1357.52 211.872 1357.21 212.317 1357.01 212.822C1356.8 213.327 1356.7 213.878 1356.71 214.435C1357.91 222.545 1361.89 226.869 1369.02 228.132C1370.19 228.355 1371.38 228.453 1372.57 228.424C1392.05 227.772 1405.85 217.1 1414.25 197.499C1417.33 190.73 1418.44 183.027 1417.42 175.492C1416.85 171.618 1415.33 168.425 1412.1 167.01C1407.8 165.128 1403.31 163.696 1398.88 162.283C1398.09 162.017 1396.91 162.806 1396.07 163.378C1392.14 165.946 1388.45 168.981 1384.47 171.365C1380.48 173.749 1376.07 174.701 1371.92 171.513C1370.66 170.543 1368.6 169.354 1369.42 167.104C1370.25 165.756 1371.46 164.772 1372.85 164.321C1377.5 162.267 1382.21 160.436 1386.76 158.592C1384.63 156.338 1382.67 154.416 1380.92 152.339C1380.7 151.968 1380.56 151.542 1380.51 151.097C1380.47 150.652 1380.51 150.201 1380.65 149.781C1380.86 149.298 1382.05 149.046 1382.73 149.203C1388.73 150.519 1394.67 151.97 1398.37 158.366C1398.81 159.015 1399.42 159.487 1400.11 159.71C1404.74 161.312 1409.4 162.819 1414.15 164.42C1410.62 158.676 1406.8 153.123 1401.49 149.326C1397.77 146.663 1393.9 144.221 1389.36 143.823C1380.91 143.024 1373.44 146.056 1366.57 151.336C1366.32 151.582 1366.13 151.881 1366 152.215C1365.86 152.549 1365.79 152.911 1365.78 153.278C1365.73 158.646 1363.29 162.737 1360.4 166.563C1357.5 170.388 1354.77 173.805 1351.86 177.334C1351.1 178.056 1350.25 178.659 1349.34 179.128C1348.72 178.069 1348.27 176.901 1348 175.673C1347.64 169.132 1349.55 162.694 1353.32 157.738C1353.63 157.335 1353.98 156.983 1354.27 156.573C1354.56 156.163 1354.63 155.917 1354.51 156.136C1351.39 156.002 1348.21 156.004 1345.06 155.669C1344.63 155.527 1344.24 155.272 1343.91 154.924C1343.59 154.577 1343.34 154.148 1343.19 153.671C1343.03 153.112 1343.76 151.907 1344.39 151.459C1346.58 149.593 1348.96 148.036 1351.48 146.82C1355.42 145.314 1359.55 144.365 1363.28 147.964C1363.61 148.153 1363.97 148.257 1364.34 148.27C1364.71 148.283 1365.08 148.204 1365.42 148.039C1367.39 147.11 1369.29 145.952 1371.23 144.924C1378.4 141.186 1385.78 139.441 1393.64 141.693C1393.04 140.874 1392.47 140.062 1391.86 139.251C1390.1 137.134 1388.79 134.592 1388.02 131.818C1387.26 129.044 1387.06 126.109 1387.44 123.236C1387.78 120.816 1388.81 120.223 1390.19 121.677C1395.77 127.027 1399.5 134.444 1400.71 142.608C1400.78 143.546 1401.04 144.453 1401.48 145.255C1401.92 146.057 1402.51 146.732 1403.22 147.226C1409.74 152.629 1415.11 159.061 1418.03 167.884C1420.09 174.156 1420.77 180.9 1420.01 187.531C1421.7 183.005 1423.23 178.498 1424.5 173.884C1425.26 171.092 1426.67 167.695 1425.86 165.383C1425.18 163.312 1421.99 162.215 1419.85 160.821C1413.84 156.937 1410.72 151.205 1411.1 143.285C1411.18 141.358 1410.92 138.588 1413.08 138.302C1414.2 138.157 1415.86 140.052 1416.77 141.428C1419.65 145.787 1422.31 150.332 1425.21 155.08C1424.8 152.103 1425.28 149.057 1426.58 146.432C1427.88 143.807 1429.93 141.755 1432.38 140.606C1433.27 140.124 1434.89 139.493 1435.23 139.915C1435.86 140.923 1436.16 142.153 1436.07 143.387C1435.6 151.087 1432.84 157.926 1429.95 164.804C1428.35 168.613 1427.22 172.632 1425.86 176.518C1428.36 175.327 1430.17 173.8 1432.15 172.629C1434.07 171.406 1436.19 170.631 1438.38 170.35C1440.58 170.069 1442.79 170.287 1444.91 170.99C1445.33 171.169 1445.71 171.443 1446.03 171.797C1446.34 172.151 1446.59 172.576 1446.76 173.045C1446.92 173.604 1446.2 174.699 1445.65 175.283C1444.49 176.465 1443.26 177.544 1441.97 178.513C1437.99 181.474 1433.97 185.008 1428.95 184.322C1424.76 183.721 1422.94 185.296 1421.47 189.518C1420.18 193.181 1417.52 196.123 1416.04 199.768C1411.65 210.575 1404.31 219.499 1395.11 225.232C1384.02 232.012 1371.86 233.118 1359.52 232.027C1357.27 231.737 1355.04 231.292 1352.84 230.695C1351.18 230.33 1350.16 230.429 1349.54 232.853C1348.66 235.425 1347.38 237.793 1345.75 239.838C1341.76 245.065 1335.57 245.184 1330.39 247.625C1328.8 248.379 1328.31 246.991 1328.99 245.259ZM1327.57 200.705C1324.67 199.643 1321.63 199.011 1318.08 198.047C1321.15 205.166 1329.85 209.079 1335.85 206.466C1336.23 206.201 1336.56 205.861 1336.83 205.463C1336.51 205.094 1336.15 204.774 1335.76 204.512C1332.98 203.231 1330.31 201.77 1327.5 200.748L1327.57 200.705ZM1320.13 181.628C1322.57 190.406 1327.8 194.997 1334.34 199.04C1331.76 190.795 1326.76 185.954 1320.07 181.672L1320.13 181.628ZM1320.4 121.055C1319.99 120.456 1319.41 120.043 1318.76 119.892C1318.53 119.861 1317.99 120.819 1317.77 121.442C1316.11 127.238 1317.16 132.876 1318.85 138.392C1319.69 141.108 1320.83 143.702 1322.12 147.09C1325.8 137.434 1325.06 129.058 1320.34 121.114L1320.4 121.055ZM1330 94.6414C1325.73 89.1814 1320.22 86.5996 1313.6 85.6935C1314.26 87.4129 1315.22 88.9649 1316.42 90.2569C1317.61 91.5488 1319.03 92.5543 1320.58 93.2131C1323.3 94.5138 1326.17 95.414 1328.99 96.4118C1329.55 96.5074 1330.11 96.5036 1330.67 96.4004C1330.49 95.776 1330.22 95.1897 1329.87 94.6657L1330 94.6414ZM1335.67 92.7931C1336.7 88.6254 1336.32 84.1688 1334.62 80.2918C1333.86 82.1353 1333.29 84.0733 1332.93 86.0664C1332.88 88.343 1333.07 90.6184 1333.49 92.8455C1333.7 93.9017 1333.97 94.94 1334.31 95.9528C1334.81 94.956 1335.22 93.9058 1335.54 92.8175L1335.67 92.7931ZM1288.42 86.2292C1287.3 88.5452 1286.41 90.9961 1285.77 93.5362C1285.53 94.4192 1286.02 95.5499 1286.17 96.5783L1288.58 95.2452C1292.89 91.0355 1297.83 87.0264 1300.69 80.7042C1301.06 80.0259 1301.33 79.2856 1301.49 78.511C1301.53 78.2039 1300.53 77.4039 1300.43 77.4735C1296.36 80.6359 1290.98 81.2162 1288.29 86.2535L1288.42 86.2292ZM1295.15 66.9744C1290.59 64.6956 1285.71 64.688 1280.83 64.9376C1280.28 65.0646 1279.76 65.2924 1279.27 65.612C1279.43 66.3192 1279.69 66.9927 1280.04 67.6063C1282.68 71.1278 1286.44 73.3303 1290.5 73.7364C1293.29 73.9236 1296.18 73.7061 1299 73.9148C1301.83 74.1234 1301.22 72.9694 1300.39 70.8155C1298.7 69.3683 1296.9 68.0912 1295.02 66.9987L1295.15 66.9744ZM1321.62 56.232C1319.07 53.6646 1316.38 51.2713 1313.58 49.0649C1310.9 47.3045 1308.12 45.7588 1305.26 44.4391C1304.7 44.2668 1304.13 44.1819 1303.55 44.1868L1303.81 46.1918C1306.45 50.2702 1310.09 53.3924 1314.27 55.1798C1316.44 55.9554 1318.54 56.7983 1320.69 57.5675C1321.02 57.6286 1321.36 57.6373 1321.69 57.5936C1321.68 57.1418 1321.76 56.4649 1321.52 56.2389L1321.62 56.232ZM1327.34 58.6746C1328.83 57.0062 1330.01 55.0216 1330.82 52.8341C1332.19 47.7287 1330.49 42.7833 1329.4 37.898C1328.76 36.0827 1327.62 36.2604 1327.07 37.5467C1325.8 39.942 1324.96 42.5991 1324.6 45.3654C1324.67 49.5128 1325 53.6498 1325.59 57.7459C1325.6 59.3304 1326.4 59.7918 1327.24 58.6815L1327.34 58.6746ZM1338.09 74.1163C1338.19 74.3126 1338.38 74.448 1338.53 74.6095C1338.49 74.5189 1338.54 74.3435 1338.51 74.322C1338.38 74.2423 1338.23 74.1736 1338.09 74.1163V74.1163ZM1351.54 85.4566C1354.28 81.8974 1356.15 77.5932 1356.97 72.9649C1357.11 72.3101 1357.19 71.6437 1357.22 70.9729C1357.27 69.8529 1357.24 68.7462 1357.28 67.6111L1353.5 68.4506C1352.24 70.8257 1351.21 73.3478 1350.43 75.9734C1350.04 78.8893 1349.91 81.8445 1350.06 84.7905C1350.11 85.2586 1350.22 85.7152 1350.4 86.1424C1350.81 86.0012 1351.2 85.7682 1351.54 85.4566V85.4566ZM1380.05 124.318C1380.63 123.888 1381.18 123.416 1381.69 122.904C1381.04 122.362 1380.4 121.374 1379.75 121.355C1376.72 121.156 1373.69 121.3 1370.69 121.785C1368.11 122.655 1365.62 123.801 1363.23 125.205L1363.55 126.144C1369.15 126.917 1374.76 127.68 1380.04 124.288L1380.05 124.318ZM1363.86 117.667C1365.74 111.414 1366.13 104.709 1364.99 98.2259C1364.65 97.3581 1364.23 96.5331 1363.74 95.7646C1362.48 98.2824 1361.33 100.872 1360.31 103.522C1358.79 108.138 1359.73 112.823 1360.43 117.437C1360.69 119.098 1361.12 120.709 1361.48 122.348C1362.4 120.877 1363.2 119.31 1363.86 117.667ZM1318.82 149.022C1313.37 145.149 1307.01 143.222 1300.58 143.493C1299.1 143.577 1297.64 143.886 1296.16 144.086C1302.93 147.997 1309.43 152.526 1317.24 152.712C1317.48 152.749 1317.72 152.736 1317.95 152.672C1319.11 152.157 1320.24 151.597 1321.39 151.052C1320.55 150.303 1319.69 149.605 1318.79 148.961L1318.82 149.022ZM1358.5 207.646C1359.95 205.898 1361.07 203.838 1361.81 201.588C1362.54 199.338 1362.87 196.943 1362.77 194.545C1362.77 194.342 1361.77 193.871 1361.44 194.05C1360.24 194.636 1359.2 195.564 1358.42 196.743C1357.63 197.922 1357.13 199.312 1356.97 200.776C1356.81 203.155 1356.8 205.542 1356.94 207.923C1357.66 207.812 1358.26 207.905 1358.54 207.722L1358.5 207.646ZM1383.4 162.902C1380.15 164.042 1376.95 165.443 1373.74 166.76C1373.22 167.005 1372.71 167.289 1372.22 167.612C1372.54 168.268 1372.97 168.849 1373.48 169.323C1375.07 170.237 1376.84 170.665 1378.62 170.563C1380.39 170.462 1382.11 169.835 1383.61 168.744C1387.46 166.385 1391.2 163.784 1395.03 161.277C1390.87 159.565 1387.16 161.572 1383.4 162.902ZM1384.84 151.568L1384.42 152.612C1387.19 155.713 1390.33 157.829 1394.38 157.534L1394.76 156.564L1384.84 151.568ZM1360.04 148.698C1356.02 147.398 1352.37 148.877 1348.33 150.874L1347 152.868C1347.78 153.105 1348.63 153.696 1349.34 153.516C1352.99 152.56 1356.61 151.442 1360.23 150.325C1360.54 150.148 1360.82 149.898 1361.04 149.591C1360.71 149.285 1360.42 148.813 1360.04 148.698ZM1359.94 154.803C1354.42 159.515 1350.15 165.713 1350.52 174.91C1355.21 169.129 1360.23 164.536 1362.8 157.664C1363.22 156.163 1363.51 154.622 1363.68 153.06C1362.37 153.443 1361.1 154.009 1359.91 154.742L1359.94 154.803ZM1389.73 124.355C1389.21 131.417 1391.88 136.72 1398.67 142.55C1397.16 135.673 1394.06 129.373 1389.7 124.295L1389.73 124.355ZM1430.98 156.34C1432.18 152.418 1433.12 148.38 1434.11 144.371C1434.15 143.724 1434.11 143.074 1433.98 142.443L1432.62 142.846C1428.75 146.159 1426.84 150.208 1427.51 155.527C1427.77 157.595 1428.14 159.647 1428.46 161.71C1429.44 160.008 1430.28 158.211 1430.98 156.34V156.34ZM1415 142.89C1414.63 142.501 1414.23 142.139 1413.82 141.805C1413.6 142.268 1413.44 142.765 1413.35 143.282C1413.25 148.481 1414.37 153.146 1418.26 156.398C1420.09 157.884 1422.01 159.184 1424.38 160.938C1422.67 154.085 1419.44 147.843 1414.99 142.812L1415 142.89ZM1427.11 182.103C1431.63 182.752 1435.36 180.456 1438.9 177.719C1440.54 176.649 1442.18 175.578 1443.81 174.508C1444.08 174.282 1444.32 174.017 1444.53 173.718C1444.19 173.479 1443.82 173.286 1443.44 173.143C1440.18 172.272 1436.76 172.889 1433.91 174.861C1431.35 176.532 1428.93 178.436 1426.48 180.264C1426.12 180.617 1425.81 181.018 1425.54 181.459C1426.04 181.718 1426.57 181.908 1427.11 182.025L1427.11 182.103ZM1351.02 204.924C1349.68 200.828 1348.35 196.724 1346.95 192.649C1346.61 192.005 1346.19 191.424 1345.7 190.929C1345.27 191.658 1344.95 192.46 1344.74 193.305C1344.31 198.62 1346.79 202.295 1349.95 205.542L1351.02 204.924ZM1331.63 220.703C1331.3 221.066 1331.06 221.514 1330.92 222.008C1332.29 223.392 1333.56 225.376 1335.18 225.907C1338.44 226.798 1341.73 227.453 1345.06 227.867C1341.43 223.434 1336.41 222.326 1331.6 220.721L1331.63 220.703ZM1345.65 227.906L1345.36 227.933L1345.41 228.039C1345.41 228.039 1345.57 227.958 1345.62 227.923L1345.65 227.906ZM1346.98 232.611C1341.94 236.19 1335.43 236.659 1332.29 243.483C1339.88 242.911 1345.43 238.86 1346.95 232.628L1346.98 232.611Z" fill="black" fill-opacity="0.1"/>
</g>
<defs>
<clipPath id="clip0_505_822">
<rect width="98.155" height="52.556" fill="white" transform="matrix(-0.837031 0.547156 0.454276 0.890861 82.1587 201.954)"/>
</clipPath>
<clipPath id="clip1_505_822">
<rect width="144.629" height="206.72" fill="white" transform="matrix(-0.837031 0.547156 0.454276 0.890861 1364.09 0)"/>
</clipPath>
</defs>
</svg>
